<mxfile host="app.diagrams.net" modified="2024-01-05T11:15:41.373Z" agent="Mozilla/5.0 (Macintosh; Intel Mac OS X 10_15_7) AppleWebKit/537.36 (KHTML, like Gecko) Chrome/120.0.0.0 Safari/537.36" version="22.1.16" etag="BJ-OEsF9SvUh6czr7QcV" type="github">
  <diagram name="Page-1" id="0hwbLDhOE5oCNTChf2g_">
    <mxGraphModel>
      <root>
        <mxCell id="0" />
        <mxCell id="1" parent="0" />
      </root>
    </mxGraphModel>
  </diagram>
</mxfile>
